<!DOCTYPE svg PUBLIC "-//W3C//DTD SVG 1.1//EN" "http://www.w3.org/Graphics/SVG/1.1/DTD/svg11.dtd">
<!-- Uploaded to: SVG Repo, www.svgrepo.com, Transformed by: SVG Repo Mixer Tools -->
<svg fill="#00e025" version="1.1" id="Layer_1" xmlns="http://www.w3.org/2000/svg" xmlns:xlink="http://www.w3.org/1999/xlink" viewBox="-49.6 -49.6 595.20 595.20" xml:space="preserve" width="800px" height="800px" stroke="#00e025">
<g id="SVGRepo_bgCarrier" stroke-width="0">
<rect x="-49.6" y="-49.6" width="595.20" height="595.20" rx="53.568000000000005" fill="#372f6f" strokewidth="0"/>
</g>
<g id="SVGRepo_tracerCarrier" stroke-linecap="round" stroke-linejoin="round"/>
<g id="SVGRepo_iconCarrier"> <g> <g> <g> <path d="M472,32h-72V0H100.688L0,100.688V496h400V192h72c13.232,0,24-10.768,24-24V56C496,42.768,485.232,32,472,32z M96,27.312 V96H27.312L96,27.312z M384,480H16V112h96V16h272v16H184c-13.232,0-24,10.768-24,24v112c0,13.232,10.768,24,24,24h200V480z M480,168c0,4.408-3.584,8-8,8H184c-4.416,0-8-3.592-8-8V56c0-4.408,3.584-8,8-8h288c4.416,0,8,3.592,8,8V168z"/> <rect x="32" y="128" width="16" height="16"/> <rect x="64" y="128" width="16" height="16"/> <rect x="32" y="160" width="16" height="16"/> <polygon points="424,90.664 404,64 384,64 384,160 400,160 400,85.336 424,117.336 448,85.336 448,160 464,160 464,64 444,64 "/> <path d="M232,80c13.232,0,24,10.768,24,24h16c0-22.056-17.944-40-40-40c-22.056,0-40,17.944-40,40v16c0,22.056,17.944,40,40,40 c22.056,0,40-17.944,40-40h-16c0,13.232-10.768,24-24,24s-24-10.768-24-24v-16C208,90.768,218.768,80,232,80z"/> <path d="M328,64c-22.056,0-40,17.944-40,40v16c0,22.056,17.944,40,40,40c22.056,0,40-17.944,40-40v-16 C368,81.944,350.056,64,328,64z M352,120c0,13.232-10.768,24-24,24s-24-10.768-24-24v-16c0-13.232,10.768-24,24-24 s24,10.768,24,24V120z"/> <path d="M64,248v112v16v8c0,13.232,10.768,24,24,24h56v24h-32v16h176v-16h-32v-24h56c13.232,0,24-10.768,24-24v-8v-16V248 c0-13.232-10.768-24-24-24H88C74.768,224,64,234.768,64,248z M240,432h-80v-24h80V432z M320,384c0,4.408-3.584,8-8,8H88 c-4.416,0-8-3.592-8-8v-8h240V384z M320,248v112H80V248c0-4.408,3.584-8,8-8h224C316.416,240,320,243.592,320,248z"/> <rect x="288" y="328" width="16" height="16"/> <rect x="256" y="328" width="16" height="16"/> <rect x="224" y="328" width="16" height="16"/> </g> </g> </g> </g>
</svg>
