<!DOCTYPE svg PUBLIC "-//W3C//DTD SVG 1.1//EN" "http://www.w3.org/Graphics/SVG/1.1/DTD/svg11.dtd">
<!-- Uploaded to: SVG Repo, www.svgrepo.com, Transformed by: SVG Repo Mixer Tools -->
<svg fill="#000000" width="800px" height="800px" viewBox="0 0 24 24" id="file-code-6-1" data-name="Layer 1" xmlns="http://www.w3.org/2000/svg" class="icon line" stroke="#000000">
<g id="SVGRepo_bgCarrier" stroke-width="0"/>
<g id="SVGRepo_tracerCarrier" stroke-linecap="round" stroke-linejoin="round" stroke="#c84646" stroke-width="1.536">
<path id="primary" d="M7,13V5L9,3H20a1,1,0,0,1,1,1V20a1,1,0,0,1-1,1H15" style="fill: none; stroke: #a400d1; stroke-linecap: round; stroke-linejoin: round; stroke-width:1.248;"/>
<polyline id="primary-2" data-name="primary" points="5 17 3 19 5 21" style="fill: none; stroke: #a400d1; stroke-linecap: round; stroke-linejoin: round; stroke-width:1.248;"/>
<polyline id="primary-3" data-name="primary" points="9 21 11 19 9 17" style="fill: none; stroke: #a400d1; stroke-linecap: round; stroke-linejoin: round; stroke-width:1.248;"/>
<path id="primary-4" data-name="primary" d="M7,5H9V3Zm10,8H11m6-4H11" style="fill: none; stroke: #a400d1; stroke-linecap: round; stroke-linejoin: round; stroke-width:1.248;"/>
</g>
<g id="SVGRepo_iconCarrier">
<path id="primary" d="M7,13V5L9,3H20a1,1,0,0,1,1,1V20a1,1,0,0,1-1,1H15" style="fill: none; stroke: #a400d1; stroke-linecap: round; stroke-linejoin: round; stroke-width:1.248;"/>
<polyline id="primary-2" data-name="primary" points="5 17 3 19 5 21" style="fill: none; stroke: #a400d1; stroke-linecap: round; stroke-linejoin: round; stroke-width:1.248;"/>
<polyline id="primary-3" data-name="primary" points="9 21 11 19 9 17" style="fill: none; stroke: #a400d1; stroke-linecap: round; stroke-linejoin: round; stroke-width:1.248;"/>
<path id="primary-4" data-name="primary" d="M7,5H9V3Zm10,8H11m6-4H11" style="fill: none; stroke: #a400d1; stroke-linecap: round; stroke-linejoin: round; stroke-width:1.248;"/>
</g>
</svg>
